<svg width="200" height="200" xmlns="http://www.w3.org/2000/svg">
  <!-- Background Circle -->
  <circle cx="100" cy="100" r="95" fill="#3" fill="#3b82f6" opacity="0.1"/>
  
  <!-- Cloud Icon -->
  <path d="M 60 80 Q 50 70 40 75 Q 30 70 35 85 Q 25 85 30 95 Q 30 105 40 105 L 80 105 Q 90 105 95 100 Q 100 105 110 105 L 150 105 Q 160 105 165 95 Q 165 85 155 85 Q 160 70 150 75 Q 140 70 130 80 Q 120 70 110 75 Q 100 70 90 75 Q 80 70 70 80 Z" fill="#3b82f6"/>
  
  <!-- Dollar Sign -->
  <text x="100" y="115" font-family="Arial, sans-serif" font-size="48" font-weight="bold" fill="#10b981" text-anchor="middle">$</text>
  
  <!-- ML/AI Sparkle -->
  <circle cx="140" cy="60" r="8" fill="#fbbf24"/>
  <path d="M 140 52 L 140 68 M 132 60 L 148 60 M 136 56 L 144 64 M 144 56 L 136 64" stroke="#fbbf24" stroke-width="2"/>
  
</svg>

