<svg width="400" height="120" xmlns="http://www.w3.org/2000/svg">
  <defs>
    <linearGradient id="textGradient" x1="0%" y1="0%" x2="100%" y2="0%">
      <stop offset="0%" style="stop-color:#3b82f6" />
      <stop offset="50%" style="stop-color:#10b981" />
      <stop offset="100%" style="stop-color:#3b82f6" />
    </linearGradient>
  </defs>
  
  <!-- Cloud Icon -->
  <circle cx="50" cy="60" r="25" fill="#3b82f6" opacity="0.2"/>
  <path d="M 35 60 Q 30 50 40 50 Q 42 42 50 45 Q 52 38 60 40 Q 62 35 68 37 Q 70 32 75 34 Q 77 40 72 42 Q 78 45 75 50 Q 78 55 72 57 Q 75 62 68 60 Q 65 67 58 65 Q 55 72 48 70 Q 45 77 38 75 Q 35 67 40 65 Q 35 62 35 60 Z" fill="#3b82f6"/>
  
  <!-- Dollar Sign -->
  <text x="50" y="75" font-family="Arial, sans-serif" font-size="32" font-weight="bold" fill="#10b981" text-anchor="middle">$</text>
  
  <!-- Text -->
  <text x="100" y="45" font-family="Arial, sans-serif" font-size="28" font-weight="bold" fill="url(#textGradient)">Multi-Cloud</text>
  <text x="100" y="75" font-family="Arial, sans-serif" font-size="28" font-weight="bold" fill="url(#textGradient)">Cost Optimizer</text>
  
  <!-- ML Badge -->
  <rect x="320" y="30" width="70" height="25" rx="12" fill="#fbbf24" opacity="0.2"/>
  <text x="355" y="48" font-family="Arial, sans-serif" font-size="12" font-weight="bold" fill="#f59e0b" text-anchor="middle">ML-Powered</text>
</svg>

